<svg id="Group_748" data-name="Group 748" xmlns="http://www.w3.org/2000/svg" width="248.001" height="245.807" viewBox="0 0 248.001 245.807">
  <g id="Pattern" transform="translate(248.001 121.916) rotate(90)">
    <rect id="Rectangle_303" data-name="Rectangle 303" width="1.755" height="9.554" rx="0.878" transform="translate(122.649 14.443) rotate(45)" fill="rgba(71,55,99,0.33)"/>
    <rect id="Rectangle_304" data-name="Rectangle 304" width="1.755" height="9.554" rx="0.878" transform="translate(108.207 28.885) rotate(45)" fill="rgba(71,55,99,0.33)"/>
    <rect id="Rectangle_305" data-name="Rectangle 305" width="1.755" height="9.554" rx="0.878" transform="translate(93.766 43.327) rotate(45)" fill="rgba(71,55,99,0.33)"/>
    <rect id="Rectangle_306" data-name="Rectangle 306" width="1.755" height="9.554" rx="0.878" transform="translate(79.325 57.766) rotate(45)" fill="rgba(71,55,99,0.33)"/>
    <rect id="Rectangle_307" data-name="Rectangle 307" width="1.755" height="9.554" rx="0.878" transform="translate(64.883 72.209) rotate(45)" fill="rgba(71,55,99,0.33)"/>
    <rect id="Rectangle_308" data-name="Rectangle 308" width="1.755" height="9.554" rx="0.878" transform="translate(50.441 86.65) rotate(45)" fill="rgba(71,55,99,0.33)"/>
    <rect id="Rectangle_309" data-name="Rectangle 309" width="1.755" height="9.554" rx="0.878" transform="translate(36 101.092) rotate(45)" fill="rgba(71,55,99,0.33)"/>
    <rect id="Rectangle_310" data-name="Rectangle 310" width="1.755" height="9.554" rx="0.878" transform="translate(21.198 115.893) rotate(45)" fill="rgba(71,55,99,0.33)"/>
    <rect id="Rectangle_311" data-name="Rectangle 311" width="1.755" height="9.554" rx="0.878" transform="translate(122.649 28.885) rotate(45)" fill="rgba(71,55,99,0.33)"/>
    <rect id="Rectangle_312" data-name="Rectangle 312" width="1.755" height="9.554" rx="0.878" transform="translate(108.207 43.327) rotate(45)" fill="rgba(71,55,99,0.33)"/>
    <rect id="Rectangle_313" data-name="Rectangle 313" width="1.755" height="9.554" rx="0.878" transform="translate(93.766 57.769) rotate(45)" fill="rgba(71,55,99,0.33)"/>
    <rect id="Rectangle_314" data-name="Rectangle 314" width="1.755" height="9.554" rx="0.878" transform="translate(79.325 72.209) rotate(45)" fill="rgba(71,55,99,0.33)"/>
    <rect id="Rectangle_315" data-name="Rectangle 315" width="1.755" height="9.554" rx="0.878" transform="translate(64.883 86.65) rotate(45)" fill="rgba(71,55,99,0.33)"/>
    <rect id="Rectangle_316" data-name="Rectangle 316" width="1.755" height="9.554" rx="0.878" transform="translate(50.441 101.092) rotate(45)" fill="rgba(71,55,99,0.33)"/>
    <rect id="Rectangle_317" data-name="Rectangle 317" width="1.755" height="9.554" rx="0.878" transform="translate(35.639 115.895) rotate(45)" fill="rgba(71,55,99,0.33)"/>
    <rect id="Rectangle_318" data-name="Rectangle 318" width="1.755" height="9.554" rx="0.878" transform="translate(122.649 43.325) rotate(45)" fill="rgba(71,55,99,0.33)"/>
    <rect id="Rectangle_319" data-name="Rectangle 319" width="1.755" height="9.554" rx="0.878" transform="translate(108.207 57.767) rotate(45)" fill="rgba(71,55,99,0.33)"/>
    <rect id="Rectangle_320" data-name="Rectangle 320" width="1.755" height="9.554" rx="0.878" transform="translate(93.766 72.209) rotate(45)" fill="rgba(71,55,99,0.33)"/>
    <rect id="Rectangle_321" data-name="Rectangle 321" width="1.755" height="9.554" rx="0.878" transform="translate(79.324 86.648) rotate(45)" fill="rgba(71,55,99,0.33)"/>
    <rect id="Rectangle_322" data-name="Rectangle 322" width="1.755" height="9.554" rx="0.878" transform="translate(64.883 101.09) rotate(45)" fill="rgba(71,55,99,0.33)"/>
    <rect id="Rectangle_323" data-name="Rectangle 323" width="1.755" height="9.554" rx="0.878" transform="translate(50.08 115.893) rotate(45)" fill="rgba(71,55,99,0.33)"/>
    <rect id="Rectangle_324" data-name="Rectangle 324" width="1.755" height="9.554" rx="0.878" transform="translate(122.649 57.767) rotate(45)" fill="rgba(71,55,99,0.33)"/>
    <rect id="Rectangle_325" data-name="Rectangle 325" width="1.755" height="9.554" rx="0.878" transform="translate(108.207 72.209) rotate(45)" fill="rgba(71,55,99,0.33)"/>
    <rect id="Rectangle_326" data-name="Rectangle 326" width="1.755" height="9.554" rx="0.878" transform="translate(93.766 86.651) rotate(45)" fill="rgba(71,55,99,0.33)"/>
    <rect id="Rectangle_327" data-name="Rectangle 327" width="1.755" height="9.554" rx="0.878" transform="translate(79.324 101.09) rotate(45)" fill="rgba(71,55,99,0.33)"/>
    <rect id="Rectangle_328" data-name="Rectangle 328" width="1.755" height="9.554" rx="0.878" transform="translate(64.522 115.893) rotate(45)" fill="rgba(71,55,99,0.33)"/>
    <rect id="Rectangle_329" data-name="Rectangle 329" width="1.755" height="9.554" rx="0.878" transform="translate(122.649 72.209) rotate(45)" fill="rgba(71,55,99,0.33)"/>
    <rect id="Rectangle_330" data-name="Rectangle 330" width="1.755" height="9.554" rx="0.878" transform="translate(108.207 86.651) rotate(45)" fill="rgba(71,55,99,0.33)"/>
    <rect id="Rectangle_331" data-name="Rectangle 331" width="1.755" height="9.554" rx="0.878" transform="translate(93.766 101.092) rotate(45)" fill="rgba(71,55,99,0.33)"/>
    <rect id="Rectangle_332" data-name="Rectangle 332" width="1.755" height="9.554" rx="0.878" transform="translate(78.963 115.893) rotate(45)" fill="rgba(71,55,99,0.33)"/>
    <rect id="Rectangle_333" data-name="Rectangle 333" width="1.755" height="9.554" rx="0.878" transform="translate(122.649 86.651) rotate(45)" fill="rgba(71,55,99,0.33)"/>
    <rect id="Rectangle_334" data-name="Rectangle 334" width="1.755" height="9.554" rx="0.878" transform="translate(108.207 101.092) rotate(45)" fill="rgba(71,55,99,0.33)"/>
    <rect id="Rectangle_335" data-name="Rectangle 335" width="1.755" height="9.554" rx="0.878" transform="translate(93.405 115.895) rotate(45)" fill="rgba(71,55,99,0.33)"/>
    <rect id="Rectangle_336" data-name="Rectangle 336" width="1.755" height="9.554" rx="0.878" transform="translate(122.649 115.532) rotate(45)" fill="rgba(71,55,99,0.33)"/>
    <rect id="Rectangle_337" data-name="Rectangle 337" width="1.755" height="9.554" rx="0.878" transform="translate(122.649 101.09) rotate(45)" fill="rgba(71,55,99,0.33)"/>
    <rect id="Rectangle_338" data-name="Rectangle 338" width="1.755" height="9.554" rx="0.878" transform="translate(107.846 115.893) rotate(45)" fill="rgba(71,55,99,0.33)"/>
    <rect id="Rectangle_339" data-name="Rectangle 339" width="1.755" height="9.554" rx="0.878" transform="translate(122.649 0.002) rotate(45)" fill="rgba(71,55,99,0.33)"/>
    <rect id="Rectangle_340" data-name="Rectangle 340" width="1.755" height="9.554" rx="0.878" transform="translate(108.207 14.443) rotate(45)" fill="rgba(71,55,99,0.33)"/>
    <rect id="Rectangle_341" data-name="Rectangle 341" width="1.755" height="9.554" rx="0.878" transform="translate(93.766 28.885) rotate(45)" fill="rgba(71,55,99,0.33)"/>
    <rect id="Rectangle_342" data-name="Rectangle 342" width="1.755" height="9.554" rx="0.878" transform="translate(79.325 43.325) rotate(45)" fill="rgba(71,55,99,0.33)"/>
    <rect id="Rectangle_343" data-name="Rectangle 343" width="1.755" height="9.554" rx="0.878" transform="translate(64.883 57.766) rotate(45)" fill="rgba(71,55,99,0.33)"/>
    <rect id="Rectangle_344" data-name="Rectangle 344" width="1.755" height="9.554" rx="0.878" transform="translate(50.441 72.209) rotate(45)" fill="rgba(71,55,99,0.33)"/>
    <rect id="Rectangle_345" data-name="Rectangle 345" width="1.755" height="9.554" rx="0.878" transform="translate(36 86.65) rotate(45)" fill="rgba(71,55,99,0.33)"/>
    <rect id="Rectangle_346" data-name="Rectangle 346" width="1.755" height="9.554" rx="0.878" transform="translate(21.559 101.09) rotate(45)" fill="rgba(71,55,99,0.33)"/>
    <rect id="Rectangle_347" data-name="Rectangle 347" width="1.755" height="9.554" rx="0.878" transform="translate(7.117 115.532) rotate(45)" fill="rgba(71,55,99,0.33)"/>
    <rect id="Rectangle_348" data-name="Rectangle 348" width="1.755" height="9.554" rx="0.878" transform="translate(102.692 7.997) rotate(-135)" fill="rgba(71,55,99,0.33)"/>
    <rect id="Rectangle_349" data-name="Rectangle 349" width="1.755" height="9.554" rx="0.878" transform="translate(88.251 22.439) rotate(-135)" fill="rgba(71,55,99,0.33)"/>
    <rect id="Rectangle_350" data-name="Rectangle 350" width="1.755" height="9.554" rx="0.878" transform="translate(73.809 36.881) rotate(-135)" fill="rgba(71,55,99,0.33)"/>
    <rect id="Rectangle_351" data-name="Rectangle 351" width="1.755" height="9.554" rx="0.878" transform="translate(59.368 51.321) rotate(-135)" fill="rgba(71,55,99,0.33)"/>
    <rect id="Rectangle_352" data-name="Rectangle 352" width="1.755" height="9.554" rx="0.878" transform="translate(44.926 65.762) rotate(-135)" fill="rgba(71,55,99,0.33)"/>
    <rect id="Rectangle_353" data-name="Rectangle 353" width="1.755" height="9.554" rx="0.878" transform="translate(30.485 80.204) rotate(-135)" fill="rgba(71,55,99,0.33)"/>
    <rect id="Rectangle_354" data-name="Rectangle 354" width="1.755" height="9.554" rx="0.878" transform="translate(16.044 94.646) rotate(-135)" fill="rgba(71,55,99,0.33)"/>
    <rect id="Rectangle_355" data-name="Rectangle 355" width="1.755" height="9.554" rx="0.878" transform="translate(1.241 109.447) rotate(-135)" fill="rgba(71,55,99,0.33)"/>
    <rect id="Rectangle_356" data-name="Rectangle 356" width="1.755" height="9.554" rx="0.878" transform="translate(88.251 7.997) rotate(-135)" fill="rgba(71,55,99,0.33)"/>
    <rect id="Rectangle_357" data-name="Rectangle 357" width="1.755" height="9.554" rx="0.878" transform="translate(73.809 22.439) rotate(-135)" fill="rgba(71,55,99,0.33)"/>
    <rect id="Rectangle_358" data-name="Rectangle 358" width="1.755" height="9.554" rx="0.878" transform="translate(59.368 36.881) rotate(-135)" fill="rgba(71,55,99,0.33)"/>
    <rect id="Rectangle_359" data-name="Rectangle 359" width="1.755" height="9.554" rx="0.878" transform="translate(44.926 51.321) rotate(-135)" fill="rgba(71,55,99,0.33)"/>
    <rect id="Rectangle_360" data-name="Rectangle 360" width="1.755" height="9.554" rx="0.878" transform="translate(30.485 65.762) rotate(-135)" fill="rgba(71,55,99,0.33)"/>
    <rect id="Rectangle_361" data-name="Rectangle 361" width="1.755" height="9.554" rx="0.878" transform="translate(16.044 80.204) rotate(-135)" fill="rgba(71,55,99,0.33)"/>
    <rect id="Rectangle_362" data-name="Rectangle 362" width="1.755" height="9.554" rx="0.878" transform="translate(1.241 95.007) rotate(-135)" fill="rgba(71,55,99,0.33)"/>
    <rect id="Rectangle_363" data-name="Rectangle 363" width="1.755" height="9.554" rx="0.878" transform="translate(73.809 7.997) rotate(-135)" fill="rgba(71,55,99,0.33)"/>
    <rect id="Rectangle_364" data-name="Rectangle 364" width="1.755" height="9.554" rx="0.878" transform="translate(59.368 22.439) rotate(-135)" fill="rgba(71,55,99,0.33)"/>
    <rect id="Rectangle_365" data-name="Rectangle 365" width="1.755" height="9.554" rx="0.878" transform="translate(44.926 36.881) rotate(-135)" fill="rgba(71,55,99,0.33)"/>
    <rect id="Rectangle_366" data-name="Rectangle 366" width="1.755" height="9.554" rx="0.878" transform="translate(30.485 51.321) rotate(-135)" fill="rgba(71,55,99,0.33)"/>
    <rect id="Rectangle_367" data-name="Rectangle 367" width="1.755" height="9.554" rx="0.878" transform="translate(16.043 65.762) rotate(-135)" fill="rgba(71,55,99,0.33)"/>
    <rect id="Rectangle_368" data-name="Rectangle 368" width="1.755" height="9.554" rx="0.878" transform="translate(1.241 80.565) rotate(-135)" fill="rgba(71,55,99,0.33)"/>
    <rect id="Rectangle_369" data-name="Rectangle 369" width="1.755" height="9.554" rx="0.878" transform="translate(59.368 7.997) rotate(-135)" fill="rgba(71,55,99,0.33)"/>
    <rect id="Rectangle_370" data-name="Rectangle 370" width="1.755" height="9.554" rx="0.878" transform="translate(44.926 22.439) rotate(-135)" fill="rgba(71,55,99,0.33)"/>
    <rect id="Rectangle_371" data-name="Rectangle 371" width="1.755" height="9.554" rx="0.878" transform="translate(30.485 36.881) rotate(-135)" fill="rgba(71,55,99,0.33)"/>
    <rect id="Rectangle_372" data-name="Rectangle 372" width="1.755" height="9.554" rx="0.878" transform="translate(16.043 51.321) rotate(-135)" fill="rgba(71,55,99,0.33)"/>
    <rect id="Rectangle_373" data-name="Rectangle 373" width="1.755" height="9.554" rx="0.878" transform="translate(1.241 66.123) rotate(-135)" fill="rgba(71,55,99,0.33)"/>
    <rect id="Rectangle_374" data-name="Rectangle 374" width="1.755" height="9.554" rx="0.878" transform="translate(44.926 7.997) rotate(-135)" fill="rgba(71,55,99,0.33)"/>
    <rect id="Rectangle_375" data-name="Rectangle 375" width="1.755" height="9.554" rx="0.878" transform="translate(30.485 22.439) rotate(-135)" fill="rgba(71,55,99,0.33)"/>
    <rect id="Rectangle_376" data-name="Rectangle 376" width="1.755" height="9.554" rx="0.878" transform="translate(16.044 36.881) rotate(-135)" fill="rgba(71,55,99,0.33)"/>
    <rect id="Rectangle_377" data-name="Rectangle 377" width="1.755" height="9.554" rx="0.878" transform="translate(1.241 51.682) rotate(-135)" fill="rgba(71,55,99,0.33)"/>
    <rect id="Rectangle_378" data-name="Rectangle 378" width="1.755" height="9.554" rx="0.878" transform="translate(30.485 7.997) rotate(-135)" fill="rgba(71,55,99,0.33)"/>
    <rect id="Rectangle_379" data-name="Rectangle 379" width="1.755" height="9.554" rx="0.878" transform="translate(16.044 22.439) rotate(-135)" fill="rgba(71,55,99,0.33)"/>
    <rect id="Rectangle_380" data-name="Rectangle 380" width="1.755" height="9.554" rx="0.878" transform="translate(1.241 37.242) rotate(-135)" fill="rgba(71,55,99,0.33)"/>
    <rect id="Rectangle_381" data-name="Rectangle 381" width="1.755" height="9.554" rx="0.878" transform="translate(1.602 7.997) rotate(-135)" fill="rgba(71,55,99,0.33)"/>
    <rect id="Rectangle_382" data-name="Rectangle 382" width="1.755" height="9.554" rx="0.878" transform="translate(16.044 7.997) rotate(-135)" fill="rgba(71,55,99,0.33)"/>
    <rect id="Rectangle_383" data-name="Rectangle 383" width="1.755" height="9.554" rx="0.878" transform="translate(1.241 22.8) rotate(-135)" fill="rgba(71,55,99,0.33)"/>
  </g>
  <g id="Pattern-2" data-name="Pattern" transform="translate(123.892 0) rotate(90)">
    <rect id="Rectangle_303-2" data-name="Rectangle 303" width="1.755" height="9.554" rx="0.878" transform="translate(122.649 14.443) rotate(45)" fill="rgba(71,55,99,0.33)"/>
    <rect id="Rectangle_304-2" data-name="Rectangle 304" width="1.755" height="9.554" rx="0.878" transform="translate(108.207 28.885) rotate(45)" fill="rgba(71,55,99,0.33)"/>
    <rect id="Rectangle_305-2" data-name="Rectangle 305" width="1.755" height="9.554" rx="0.878" transform="translate(93.766 43.327) rotate(45)" fill="rgba(71,55,99,0.33)"/>
    <rect id="Rectangle_306-2" data-name="Rectangle 306" width="1.755" height="9.554" rx="0.878" transform="translate(79.325 57.766) rotate(45)" fill="rgba(71,55,99,0.33)"/>
    <rect id="Rectangle_307-2" data-name="Rectangle 307" width="1.755" height="9.554" rx="0.878" transform="translate(64.883 72.209) rotate(45)" fill="rgba(71,55,99,0.33)"/>
    <rect id="Rectangle_308-2" data-name="Rectangle 308" width="1.755" height="9.554" rx="0.878" transform="translate(50.441 86.65) rotate(45)" fill="rgba(71,55,99,0.33)"/>
    <rect id="Rectangle_309-2" data-name="Rectangle 309" width="1.755" height="9.554" rx="0.878" transform="translate(36 101.092) rotate(45)" fill="rgba(71,55,99,0.33)"/>
    <rect id="Rectangle_310-2" data-name="Rectangle 310" width="1.755" height="9.554" rx="0.878" transform="translate(21.198 115.893) rotate(45)" fill="rgba(71,55,99,0.33)"/>
    <rect id="Rectangle_311-2" data-name="Rectangle 311" width="1.755" height="9.554" rx="0.878" transform="translate(122.649 28.885) rotate(45)" fill="rgba(71,55,99,0.33)"/>
    <rect id="Rectangle_312-2" data-name="Rectangle 312" width="1.755" height="9.554" rx="0.878" transform="translate(108.207 43.327) rotate(45)" fill="rgba(71,55,99,0.33)"/>
    <rect id="Rectangle_313-2" data-name="Rectangle 313" width="1.755" height="9.554" rx="0.878" transform="translate(93.766 57.769) rotate(45)" fill="rgba(71,55,99,0.33)"/>
    <rect id="Rectangle_314-2" data-name="Rectangle 314" width="1.755" height="9.554" rx="0.878" transform="translate(79.325 72.209) rotate(45)" fill="rgba(71,55,99,0.33)"/>
    <rect id="Rectangle_315-2" data-name="Rectangle 315" width="1.755" height="9.554" rx="0.878" transform="translate(64.883 86.65) rotate(45)" fill="rgba(71,55,99,0.33)"/>
    <rect id="Rectangle_316-2" data-name="Rectangle 316" width="1.755" height="9.554" rx="0.878" transform="translate(50.441 101.092) rotate(45)" fill="rgba(71,55,99,0.33)"/>
    <rect id="Rectangle_317-2" data-name="Rectangle 317" width="1.755" height="9.554" rx="0.878" transform="translate(35.639 115.895) rotate(45)" fill="rgba(71,55,99,0.33)"/>
    <rect id="Rectangle_318-2" data-name="Rectangle 318" width="1.755" height="9.554" rx="0.878" transform="translate(122.649 43.325) rotate(45)" fill="rgba(71,55,99,0.33)"/>
    <rect id="Rectangle_319-2" data-name="Rectangle 319" width="1.755" height="9.554" rx="0.878" transform="translate(108.207 57.767) rotate(45)" fill="rgba(71,55,99,0.33)"/>
    <rect id="Rectangle_320-2" data-name="Rectangle 320" width="1.755" height="9.554" rx="0.878" transform="translate(93.766 72.209) rotate(45)" fill="rgba(71,55,99,0.33)"/>
    <rect id="Rectangle_321-2" data-name="Rectangle 321" width="1.755" height="9.554" rx="0.878" transform="translate(79.324 86.648) rotate(45)" fill="rgba(71,55,99,0.33)"/>
    <rect id="Rectangle_322-2" data-name="Rectangle 322" width="1.755" height="9.554" rx="0.878" transform="translate(64.883 101.09) rotate(45)" fill="rgba(71,55,99,0.33)"/>
    <rect id="Rectangle_323-2" data-name="Rectangle 323" width="1.755" height="9.554" rx="0.878" transform="translate(50.08 115.893) rotate(45)" fill="rgba(71,55,99,0.33)"/>
    <rect id="Rectangle_324-2" data-name="Rectangle 324" width="1.755" height="9.554" rx="0.878" transform="translate(122.649 57.767) rotate(45)" fill="rgba(71,55,99,0.33)"/>
    <rect id="Rectangle_325-2" data-name="Rectangle 325" width="1.755" height="9.554" rx="0.878" transform="translate(108.207 72.209) rotate(45)" fill="rgba(71,55,99,0.33)"/>
    <rect id="Rectangle_326-2" data-name="Rectangle 326" width="1.755" height="9.554" rx="0.878" transform="translate(93.766 86.651) rotate(45)" fill="rgba(71,55,99,0.33)"/>
    <rect id="Rectangle_327-2" data-name="Rectangle 327" width="1.755" height="9.554" rx="0.878" transform="translate(79.324 101.09) rotate(45)" fill="rgba(71,55,99,0.33)"/>
    <rect id="Rectangle_328-2" data-name="Rectangle 328" width="1.755" height="9.554" rx="0.878" transform="translate(64.522 115.893) rotate(45)" fill="rgba(71,55,99,0.33)"/>
    <rect id="Rectangle_329-2" data-name="Rectangle 329" width="1.755" height="9.554" rx="0.878" transform="translate(122.649 72.209) rotate(45)" fill="rgba(71,55,99,0.33)"/>
    <rect id="Rectangle_330-2" data-name="Rectangle 330" width="1.755" height="9.554" rx="0.878" transform="translate(108.207 86.651) rotate(45)" fill="rgba(71,55,99,0.33)"/>
    <rect id="Rectangle_331-2" data-name="Rectangle 331" width="1.755" height="9.554" rx="0.878" transform="translate(93.766 101.092) rotate(45)" fill="rgba(71,55,99,0.33)"/>
    <rect id="Rectangle_332-2" data-name="Rectangle 332" width="1.755" height="9.554" rx="0.878" transform="translate(78.963 115.893) rotate(45)" fill="rgba(71,55,99,0.33)"/>
    <rect id="Rectangle_333-2" data-name="Rectangle 333" width="1.755" height="9.554" rx="0.878" transform="translate(122.649 86.651) rotate(45)" fill="rgba(71,55,99,0.33)"/>
    <rect id="Rectangle_334-2" data-name="Rectangle 334" width="1.755" height="9.554" rx="0.878" transform="translate(108.207 101.092) rotate(45)" fill="rgba(71,55,99,0.33)"/>
    <rect id="Rectangle_335-2" data-name="Rectangle 335" width="1.755" height="9.554" rx="0.878" transform="translate(93.405 115.895) rotate(45)" fill="rgba(71,55,99,0.33)"/>
    <rect id="Rectangle_336-2" data-name="Rectangle 336" width="1.755" height="9.554" rx="0.878" transform="translate(122.649 115.532) rotate(45)" fill="rgba(71,55,99,0.33)"/>
    <rect id="Rectangle_337-2" data-name="Rectangle 337" width="1.755" height="9.554" rx="0.878" transform="translate(122.649 101.09) rotate(45)" fill="rgba(71,55,99,0.33)"/>
    <rect id="Rectangle_338-2" data-name="Rectangle 338" width="1.755" height="9.554" rx="0.878" transform="translate(107.846 115.893) rotate(45)" fill="rgba(71,55,99,0.33)"/>
    <rect id="Rectangle_339-2" data-name="Rectangle 339" width="1.755" height="9.554" rx="0.878" transform="translate(122.649 0.002) rotate(45)" fill="rgba(71,55,99,0.33)"/>
    <rect id="Rectangle_340-2" data-name="Rectangle 340" width="1.755" height="9.554" rx="0.878" transform="translate(108.207 14.443) rotate(45)" fill="rgba(71,55,99,0.33)"/>
    <rect id="Rectangle_341-2" data-name="Rectangle 341" width="1.755" height="9.554" rx="0.878" transform="translate(93.766 28.885) rotate(45)" fill="rgba(71,55,99,0.33)"/>
    <rect id="Rectangle_342-2" data-name="Rectangle 342" width="1.755" height="9.554" rx="0.878" transform="translate(79.325 43.325) rotate(45)" fill="rgba(71,55,99,0.33)"/>
    <rect id="Rectangle_343-2" data-name="Rectangle 343" width="1.755" height="9.554" rx="0.878" transform="translate(64.883 57.766) rotate(45)" fill="rgba(71,55,99,0.33)"/>
    <rect id="Rectangle_344-2" data-name="Rectangle 344" width="1.755" height="9.554" rx="0.878" transform="translate(50.441 72.209) rotate(45)" fill="rgba(71,55,99,0.33)"/>
    <rect id="Rectangle_345-2" data-name="Rectangle 345" width="1.755" height="9.554" rx="0.878" transform="translate(36 86.65) rotate(45)" fill="rgba(71,55,99,0.33)"/>
    <rect id="Rectangle_346-2" data-name="Rectangle 346" width="1.755" height="9.554" rx="0.878" transform="translate(21.559 101.09) rotate(45)" fill="rgba(71,55,99,0.33)"/>
    <rect id="Rectangle_347-2" data-name="Rectangle 347" width="1.755" height="9.554" rx="0.878" transform="translate(7.117 115.532) rotate(45)" fill="rgba(71,55,99,0.33)"/>
    <rect id="Rectangle_348-2" data-name="Rectangle 348" width="1.755" height="9.554" rx="0.878" transform="translate(102.692 7.997) rotate(-135)" fill="rgba(71,55,99,0.33)"/>
    <rect id="Rectangle_349-2" data-name="Rectangle 349" width="1.755" height="9.554" rx="0.878" transform="translate(88.251 22.439) rotate(-135)" fill="rgba(71,55,99,0.33)"/>
    <rect id="Rectangle_350-2" data-name="Rectangle 350" width="1.755" height="9.554" rx="0.878" transform="translate(73.809 36.881) rotate(-135)" fill="rgba(71,55,99,0.33)"/>
    <rect id="Rectangle_351-2" data-name="Rectangle 351" width="1.755" height="9.554" rx="0.878" transform="translate(59.368 51.321) rotate(-135)" fill="rgba(71,55,99,0.33)"/>
    <rect id="Rectangle_352-2" data-name="Rectangle 352" width="1.755" height="9.554" rx="0.878" transform="translate(44.926 65.762) rotate(-135)" fill="rgba(71,55,99,0.33)"/>
    <rect id="Rectangle_353-2" data-name="Rectangle 353" width="1.755" height="9.554" rx="0.878" transform="translate(30.485 80.204) rotate(-135)" fill="rgba(71,55,99,0.33)"/>
    <rect id="Rectangle_354-2" data-name="Rectangle 354" width="1.755" height="9.554" rx="0.878" transform="translate(16.044 94.646) rotate(-135)" fill="rgba(71,55,99,0.33)"/>
    <rect id="Rectangle_355-2" data-name="Rectangle 355" width="1.755" height="9.554" rx="0.878" transform="translate(1.241 109.447) rotate(-135)" fill="rgba(71,55,99,0.33)"/>
    <rect id="Rectangle_356-2" data-name="Rectangle 356" width="1.755" height="9.554" rx="0.878" transform="translate(88.251 7.997) rotate(-135)" fill="rgba(71,55,99,0.33)"/>
    <rect id="Rectangle_357-2" data-name="Rectangle 357" width="1.755" height="9.554" rx="0.878" transform="translate(73.809 22.439) rotate(-135)" fill="rgba(71,55,99,0.33)"/>
    <rect id="Rectangle_358-2" data-name="Rectangle 358" width="1.755" height="9.554" rx="0.878" transform="translate(59.368 36.881) rotate(-135)" fill="rgba(71,55,99,0.33)"/>
    <rect id="Rectangle_359-2" data-name="Rectangle 359" width="1.755" height="9.554" rx="0.878" transform="translate(44.926 51.321) rotate(-135)" fill="rgba(71,55,99,0.33)"/>
    <rect id="Rectangle_360-2" data-name="Rectangle 360" width="1.755" height="9.554" rx="0.878" transform="translate(30.485 65.762) rotate(-135)" fill="rgba(71,55,99,0.33)"/>
    <rect id="Rectangle_361-2" data-name="Rectangle 361" width="1.755" height="9.554" rx="0.878" transform="translate(16.044 80.204) rotate(-135)" fill="rgba(71,55,99,0.33)"/>
    <rect id="Rectangle_362-2" data-name="Rectangle 362" width="1.755" height="9.554" rx="0.878" transform="translate(1.241 95.007) rotate(-135)" fill="rgba(71,55,99,0.33)"/>
    <rect id="Rectangle_363-2" data-name="Rectangle 363" width="1.755" height="9.554" rx="0.878" transform="translate(73.809 7.997) rotate(-135)" fill="rgba(71,55,99,0.33)"/>
    <rect id="Rectangle_364-2" data-name="Rectangle 364" width="1.755" height="9.554" rx="0.878" transform="translate(59.368 22.439) rotate(-135)" fill="rgba(71,55,99,0.33)"/>
    <rect id="Rectangle_365-2" data-name="Rectangle 365" width="1.755" height="9.554" rx="0.878" transform="translate(44.926 36.881) rotate(-135)" fill="rgba(71,55,99,0.33)"/>
    <rect id="Rectangle_366-2" data-name="Rectangle 366" width="1.755" height="9.554" rx="0.878" transform="translate(30.485 51.321) rotate(-135)" fill="rgba(71,55,99,0.33)"/>
    <rect id="Rectangle_367-2" data-name="Rectangle 367" width="1.755" height="9.554" rx="0.878" transform="translate(16.043 65.762) rotate(-135)" fill="rgba(71,55,99,0.33)"/>
    <rect id="Rectangle_368-2" data-name="Rectangle 368" width="1.755" height="9.554" rx="0.878" transform="translate(1.241 80.565) rotate(-135)" fill="rgba(71,55,99,0.33)"/>
    <rect id="Rectangle_369-2" data-name="Rectangle 369" width="1.755" height="9.554" rx="0.878" transform="translate(59.368 7.997) rotate(-135)" fill="rgba(71,55,99,0.33)"/>
    <rect id="Rectangle_370-2" data-name="Rectangle 370" width="1.755" height="9.554" rx="0.878" transform="translate(44.926 22.439) rotate(-135)" fill="rgba(71,55,99,0.33)"/>
    <rect id="Rectangle_371-2" data-name="Rectangle 371" width="1.755" height="9.554" rx="0.878" transform="translate(30.485 36.881) rotate(-135)" fill="rgba(71,55,99,0.33)"/>
    <rect id="Rectangle_372-2" data-name="Rectangle 372" width="1.755" height="9.554" rx="0.878" transform="translate(16.043 51.321) rotate(-135)" fill="rgba(71,55,99,0.33)"/>
    <rect id="Rectangle_373-2" data-name="Rectangle 373" width="1.755" height="9.554" rx="0.878" transform="translate(1.241 66.123) rotate(-135)" fill="rgba(71,55,99,0.33)"/>
    <rect id="Rectangle_374-2" data-name="Rectangle 374" width="1.755" height="9.554" rx="0.878" transform="translate(44.926 7.997) rotate(-135)" fill="rgba(71,55,99,0.33)"/>
    <rect id="Rectangle_375-2" data-name="Rectangle 375" width="1.755" height="9.554" rx="0.878" transform="translate(30.485 22.439) rotate(-135)" fill="rgba(71,55,99,0.33)"/>
    <rect id="Rectangle_376-2" data-name="Rectangle 376" width="1.755" height="9.554" rx="0.878" transform="translate(16.044 36.881) rotate(-135)" fill="rgba(71,55,99,0.33)"/>
    <rect id="Rectangle_377-2" data-name="Rectangle 377" width="1.755" height="9.554" rx="0.878" transform="translate(1.241 51.682) rotate(-135)" fill="rgba(71,55,99,0.33)"/>
    <rect id="Rectangle_378-2" data-name="Rectangle 378" width="1.755" height="9.554" rx="0.878" transform="translate(30.485 7.997) rotate(-135)" fill="rgba(71,55,99,0.33)"/>
    <rect id="Rectangle_379-2" data-name="Rectangle 379" width="1.755" height="9.554" rx="0.878" transform="translate(16.044 22.439) rotate(-135)" fill="rgba(71,55,99,0.33)"/>
    <rect id="Rectangle_380-2" data-name="Rectangle 380" width="1.755" height="9.554" rx="0.878" transform="translate(1.241 37.242) rotate(-135)" fill="rgba(71,55,99,0.33)"/>
    <rect id="Rectangle_381-2" data-name="Rectangle 381" width="1.755" height="9.554" rx="0.878" transform="translate(1.602 7.997) rotate(-135)" fill="rgba(71,55,99,0.33)"/>
    <rect id="Rectangle_382-2" data-name="Rectangle 382" width="1.755" height="9.554" rx="0.878" transform="translate(16.044 7.997) rotate(-135)" fill="rgba(71,55,99,0.33)"/>
    <rect id="Rectangle_383-2" data-name="Rectangle 383" width="1.755" height="9.554" rx="0.878" transform="translate(1.241 22.8) rotate(-135)" fill="rgba(71,55,99,0.33)"/>
  </g>
</svg>
