<svg xmlns="http://www.w3.org/2000/svg" width="206.83" height="205" viewBox="0 0 206.83 205">
  <g id="Group_695" data-name="Group 695" transform="translate(0)">
    <g id="Pattern" transform="translate(103.325 101.677) rotate(90)">
      <rect id="Rectangle_303" data-name="Rectangle 303" width="1.464" height="7.968" rx="0.732" transform="translate(96.654 85.645) rotate(-45)" fill="rgba(71,55,99,0.33)"/>
      <rect id="Rectangle_304" data-name="Rectangle 304" width="1.464" height="7.968" rx="0.732" transform="translate(84.609 73.6) rotate(-45)" fill="rgba(71,55,99,0.33)"/>
      <rect id="Rectangle_305" data-name="Rectangle 305" width="1.464" height="7.968" rx="0.732" transform="translate(72.565 61.556) rotate(-45)" fill="rgba(71,55,99,0.33)"/>
      <rect id="Rectangle_306" data-name="Rectangle 306" width="1.464" height="7.968" rx="0.732" transform="translate(60.521 49.514) rotate(-45)" fill="rgba(71,55,99,0.33)"/>
      <rect id="Rectangle_307" data-name="Rectangle 307" width="1.464" height="7.968" rx="0.732" transform="translate(48.477 37.469) rotate(-45)" fill="rgba(71,55,99,0.33)"/>
      <rect id="Rectangle_308" data-name="Rectangle 308" width="1.464" height="7.968" rx="0.732" transform="translate(36.433 25.425) rotate(-45)" fill="rgba(71,55,99,0.33)"/>
      <rect id="Rectangle_309" data-name="Rectangle 309" width="1.464" height="7.968" rx="0.732" transform="translate(24.389 13.38) rotate(-45)" fill="rgba(71,55,99,0.33)"/>
      <rect id="Rectangle_310" data-name="Rectangle 310" width="1.464" height="7.968" rx="0.732" transform="translate(12.044 1.037) rotate(-45)" fill="rgba(71,55,99,0.33)"/>
      <rect id="Rectangle_311" data-name="Rectangle 311" width="1.464" height="7.968" rx="0.732" transform="translate(96.654 73.6) rotate(-45)" fill="rgba(71,55,99,0.33)"/>
      <rect id="Rectangle_312" data-name="Rectangle 312" width="1.464" height="7.968" rx="0.732" transform="translate(84.609 61.556) rotate(-45)" fill="rgba(71,55,99,0.33)"/>
      <rect id="Rectangle_313" data-name="Rectangle 313" width="1.464" height="7.968" rx="0.732" transform="translate(72.565 49.512) rotate(-45)" fill="rgba(71,55,99,0.33)"/>
      <rect id="Rectangle_314" data-name="Rectangle 314" width="1.464" height="7.968" rx="0.732" transform="translate(60.521 37.469) rotate(-45)" fill="rgba(71,55,99,0.33)"/>
      <rect id="Rectangle_315" data-name="Rectangle 315" width="1.464" height="7.968" rx="0.732" transform="translate(48.477 25.425) rotate(-45)" fill="rgba(71,55,99,0.33)"/>
      <rect id="Rectangle_316" data-name="Rectangle 316" width="1.464" height="7.968" rx="0.732" transform="translate(36.433 13.38) rotate(-45)" fill="rgba(71,55,99,0.33)"/>
      <rect id="Rectangle_317" data-name="Rectangle 317" width="1.464" height="7.968" rx="0.732" transform="translate(24.088 1.035) rotate(-45)" fill="rgba(71,55,99,0.33)"/>
      <rect id="Rectangle_318" data-name="Rectangle 318" width="1.464" height="7.968" rx="0.732" transform="translate(96.654 61.558) rotate(-45)" fill="rgba(71,55,99,0.33)"/>
      <rect id="Rectangle_319" data-name="Rectangle 319" width="1.464" height="7.968" rx="0.732" transform="translate(84.609 49.514) rotate(-45)" fill="rgba(71,55,99,0.33)"/>
      <rect id="Rectangle_320" data-name="Rectangle 320" width="1.464" height="7.968" rx="0.732" transform="translate(72.565 37.469) rotate(-45)" fill="rgba(71,55,99,0.33)"/>
      <rect id="Rectangle_321" data-name="Rectangle 321" width="1.464" height="7.968" rx="0.732" transform="translate(60.521 25.426) rotate(-45)" fill="rgba(71,55,99,0.33)"/>
      <rect id="Rectangle_322" data-name="Rectangle 322" width="1.464" height="7.968" rx="0.732" transform="translate(48.477 13.382) rotate(-45)" fill="rgba(71,55,99,0.33)"/>
      <rect id="Rectangle_323" data-name="Rectangle 323" width="1.464" height="7.968" rx="0.732" transform="translate(36.132 1.037) rotate(-45)" fill="rgba(71,55,99,0.33)"/>
      <rect id="Rectangle_324" data-name="Rectangle 324" width="1.464" height="7.968" rx="0.732" transform="translate(96.653 49.514) rotate(-45)" fill="rgba(71,55,99,0.33)"/>
      <rect id="Rectangle_325" data-name="Rectangle 325" width="1.464" height="7.968" rx="0.732" transform="translate(84.609 37.469) rotate(-45)" fill="rgba(71,55,99,0.33)"/>
      <rect id="Rectangle_326" data-name="Rectangle 326" width="1.464" height="7.968" rx="0.732" transform="translate(72.565 25.425) rotate(-45)" fill="rgba(71,55,99,0.33)"/>
      <rect id="Rectangle_327" data-name="Rectangle 327" width="1.464" height="7.968" rx="0.732" transform="translate(60.521 13.382) rotate(-45)" fill="rgba(71,55,99,0.33)"/>
      <rect id="Rectangle_328" data-name="Rectangle 328" width="1.464" height="7.968" rx="0.732" transform="translate(48.176 1.037) rotate(-45)" fill="rgba(71,55,99,0.33)"/>
      <rect id="Rectangle_329" data-name="Rectangle 329" width="1.464" height="7.968" rx="0.732" transform="translate(96.653 37.469) rotate(-45)" fill="rgba(71,55,99,0.33)"/>
      <rect id="Rectangle_330" data-name="Rectangle 330" width="1.464" height="7.968" rx="0.732" transform="translate(84.609 25.425) rotate(-45)" fill="rgba(71,55,99,0.33)"/>
      <rect id="Rectangle_331" data-name="Rectangle 331" width="1.464" height="7.968" rx="0.732" transform="translate(72.565 13.38) rotate(-45)" fill="rgba(71,55,99,0.33)"/>
      <rect id="Rectangle_332" data-name="Rectangle 332" width="1.464" height="7.968" rx="0.732" transform="translate(60.22 1.037) rotate(-45)" fill="rgba(71,55,99,0.33)"/>
      <rect id="Rectangle_333" data-name="Rectangle 333" width="1.464" height="7.968" rx="0.732" transform="translate(96.653 25.425) rotate(-45)" fill="rgba(71,55,99,0.33)"/>
      <rect id="Rectangle_334" data-name="Rectangle 334" width="1.464" height="7.968" rx="0.732" transform="translate(84.609 13.38) rotate(-45)" fill="rgba(71,55,99,0.33)"/>
      <rect id="Rectangle_335" data-name="Rectangle 335" width="1.464" height="7.968" rx="0.732" transform="translate(72.264 1.035) rotate(-45)" fill="rgba(71,55,99,0.33)"/>
      <rect id="Rectangle_336" data-name="Rectangle 336" width="1.464" height="7.968" rx="0.732" transform="translate(96.653 1.338) rotate(-45)" fill="rgba(71,55,99,0.33)"/>
      <rect id="Rectangle_337" data-name="Rectangle 337" width="1.464" height="7.968" rx="0.732" transform="translate(96.653 13.382) rotate(-45)" fill="rgba(71,55,99,0.33)"/>
      <rect id="Rectangle_338" data-name="Rectangle 338" width="1.464" height="7.968" rx="0.732" transform="translate(84.308 1.037) rotate(-45)" fill="rgba(71,55,99,0.33)"/>
      <rect id="Rectangle_339" data-name="Rectangle 339" width="1.464" height="7.968" rx="0.732" transform="translate(96.654 97.689) rotate(-45)" fill="rgba(71,55,99,0.33)"/>
      <rect id="Rectangle_340" data-name="Rectangle 340" width="1.464" height="7.968" rx="0.732" transform="translate(84.609 85.645) rotate(-45)" fill="rgba(71,55,99,0.33)"/>
      <rect id="Rectangle_341" data-name="Rectangle 341" width="1.464" height="7.968" rx="0.732" transform="translate(72.565 73.6) rotate(-45)" fill="rgba(71,55,99,0.33)"/>
      <rect id="Rectangle_342" data-name="Rectangle 342" width="1.464" height="7.968" rx="0.732" transform="translate(60.521 61.558) rotate(-45)" fill="rgba(71,55,99,0.33)"/>
      <rect id="Rectangle_343" data-name="Rectangle 343" width="1.464" height="7.968" rx="0.732" transform="translate(48.477 49.514) rotate(-45)" fill="rgba(71,55,99,0.33)"/>
      <rect id="Rectangle_344" data-name="Rectangle 344" width="1.464" height="7.968" rx="0.732" transform="translate(36.433 37.469) rotate(-45)" fill="rgba(71,55,99,0.33)"/>
      <rect id="Rectangle_345" data-name="Rectangle 345" width="1.464" height="7.968" rx="0.732" transform="translate(24.389 25.425) rotate(-45)" fill="rgba(71,55,99,0.33)"/>
      <rect id="Rectangle_346" data-name="Rectangle 346" width="1.464" height="7.968" rx="0.732" transform="translate(12.345 13.382) rotate(-45)" fill="rgba(71,55,99,0.33)"/>
      <rect id="Rectangle_347" data-name="Rectangle 347" width="1.464" height="7.968" rx="0.732" transform="translate(0.301 1.338) rotate(-45)" fill="rgba(71,55,99,0.33)"/>
      <rect id="Rectangle_348" data-name="Rectangle 348" width="1.464" height="7.968" rx="0.732" transform="translate(91.279 102.29) rotate(135)" fill="rgba(71,55,99,0.33)"/>
      <rect id="Rectangle_349" data-name="Rectangle 349" width="1.464" height="7.968" rx="0.732" transform="translate(79.234 90.245) rotate(135)" fill="rgba(71,55,99,0.33)"/>
      <rect id="Rectangle_350" data-name="Rectangle 350" width="1.464" height="7.968" rx="0.732" transform="translate(67.191 78.201) rotate(135)" fill="rgba(71,55,99,0.33)"/>
      <rect id="Rectangle_351" data-name="Rectangle 351" width="1.464" height="7.968" rx="0.732" transform="translate(55.147 66.158) rotate(135)" fill="rgba(71,55,99,0.33)"/>
      <rect id="Rectangle_352" data-name="Rectangle 352" width="1.464" height="7.968" rx="0.732" transform="translate(43.102 54.114) rotate(135)" fill="rgba(71,55,99,0.33)"/>
      <rect id="Rectangle_353" data-name="Rectangle 353" width="1.464" height="7.968" rx="0.732" transform="translate(31.059 42.07) rotate(135)" fill="rgba(71,55,99,0.33)"/>
      <rect id="Rectangle_354" data-name="Rectangle 354" width="1.464" height="7.968" rx="0.732" transform="translate(19.015 30.025) rotate(135)" fill="rgba(71,55,99,0.33)"/>
      <rect id="Rectangle_355" data-name="Rectangle 355" width="1.464" height="7.968" rx="0.732" transform="translate(6.67 17.681) rotate(135)" fill="rgba(71,55,99,0.33)"/>
      <rect id="Rectangle_356" data-name="Rectangle 356" width="1.464" height="7.968" rx="0.732" transform="translate(79.234 102.29) rotate(135)" fill="rgba(71,55,99,0.33)"/>
      <rect id="Rectangle_357" data-name="Rectangle 357" width="1.464" height="7.968" rx="0.732" transform="translate(67.191 90.245) rotate(135)" fill="rgba(71,55,99,0.33)"/>
      <rect id="Rectangle_358" data-name="Rectangle 358" width="1.464" height="7.968" rx="0.732" transform="translate(55.147 78.201) rotate(135)" fill="rgba(71,55,99,0.33)"/>
      <rect id="Rectangle_359" data-name="Rectangle 359" width="1.464" height="7.968" rx="0.732" transform="translate(43.102 66.158) rotate(135)" fill="rgba(71,55,99,0.33)"/>
      <rect id="Rectangle_360" data-name="Rectangle 360" width="1.464" height="7.968" rx="0.732" transform="translate(31.059 54.114) rotate(135)" fill="rgba(71,55,99,0.33)"/>
      <rect id="Rectangle_361" data-name="Rectangle 361" width="1.464" height="7.968" rx="0.732" transform="translate(19.015 42.07) rotate(135)" fill="rgba(71,55,99,0.33)"/>
      <rect id="Rectangle_362" data-name="Rectangle 362" width="1.464" height="7.968" rx="0.732" transform="translate(6.67 29.724) rotate(135)" fill="rgba(71,55,99,0.33)"/>
      <rect id="Rectangle_363" data-name="Rectangle 363" width="1.464" height="7.968" rx="0.732" transform="translate(67.191 102.29) rotate(135)" fill="rgba(71,55,99,0.33)"/>
      <rect id="Rectangle_364" data-name="Rectangle 364" width="1.464" height="7.968" rx="0.732" transform="translate(55.147 90.245) rotate(135)" fill="rgba(71,55,99,0.33)"/>
      <rect id="Rectangle_365" data-name="Rectangle 365" width="1.464" height="7.968" rx="0.732" transform="translate(43.102 78.201) rotate(135)" fill="rgba(71,55,99,0.33)"/>
      <rect id="Rectangle_366" data-name="Rectangle 366" width="1.464" height="7.968" rx="0.732" transform="translate(31.059 66.158) rotate(135)" fill="rgba(71,55,99,0.33)"/>
      <rect id="Rectangle_367" data-name="Rectangle 367" width="1.464" height="7.968" rx="0.732" transform="translate(19.014 54.114) rotate(135)" fill="rgba(71,55,99,0.33)"/>
      <rect id="Rectangle_368" data-name="Rectangle 368" width="1.464" height="7.968" rx="0.732" transform="translate(6.669 41.769) rotate(135)" fill="rgba(71,55,99,0.33)"/>
      <rect id="Rectangle_369" data-name="Rectangle 369" width="1.464" height="7.968" rx="0.732" transform="translate(55.147 102.29) rotate(135)" fill="rgba(71,55,99,0.33)"/>
      <rect id="Rectangle_370" data-name="Rectangle 370" width="1.464" height="7.968" rx="0.732" transform="translate(43.102 90.245) rotate(135)" fill="rgba(71,55,99,0.33)"/>
      <rect id="Rectangle_371" data-name="Rectangle 371" width="1.464" height="7.968" rx="0.732" transform="translate(31.059 78.201) rotate(135)" fill="rgba(71,55,99,0.33)"/>
      <rect id="Rectangle_372" data-name="Rectangle 372" width="1.464" height="7.968" rx="0.732" transform="translate(19.014 66.158) rotate(135)" fill="rgba(71,55,99,0.33)"/>
      <rect id="Rectangle_373" data-name="Rectangle 373" width="1.464" height="7.968" rx="0.732" transform="translate(6.669 53.813) rotate(135)" fill="rgba(71,55,99,0.33)"/>
      <rect id="Rectangle_374" data-name="Rectangle 374" width="1.464" height="7.968" rx="0.732" transform="translate(43.102 102.29) rotate(135)" fill="rgba(71,55,99,0.33)"/>
      <rect id="Rectangle_375" data-name="Rectangle 375" width="1.464" height="7.968" rx="0.732" transform="translate(31.059 90.245) rotate(135)" fill="rgba(71,55,99,0.33)"/>
      <rect id="Rectangle_376" data-name="Rectangle 376" width="1.464" height="7.968" rx="0.732" transform="translate(19.015 78.201) rotate(135)" fill="rgba(71,55,99,0.33)"/>
      <rect id="Rectangle_377" data-name="Rectangle 377" width="1.464" height="7.968" rx="0.732" transform="translate(6.669 65.857) rotate(135)" fill="rgba(71,55,99,0.33)"/>
      <rect id="Rectangle_378" data-name="Rectangle 378" width="1.464" height="7.968" rx="0.732" transform="translate(31.059 102.29) rotate(135)" fill="rgba(71,55,99,0.33)"/>
      <rect id="Rectangle_379" data-name="Rectangle 379" width="1.464" height="7.968" rx="0.732" transform="translate(19.015 90.245) rotate(135)" fill="rgba(71,55,99,0.33)"/>
      <rect id="Rectangle_380" data-name="Rectangle 380" width="1.464" height="7.968" rx="0.732" transform="translate(6.669 77.9) rotate(135)" fill="rgba(71,55,99,0.33)"/>
      <rect id="Rectangle_381" data-name="Rectangle 381" width="1.464" height="7.968" rx="0.732" transform="translate(6.971 102.29) rotate(135)" fill="rgba(71,55,99,0.33)"/>
      <rect id="Rectangle_382" data-name="Rectangle 382" width="1.464" height="7.968" rx="0.732" transform="translate(19.015 102.29) rotate(135)" fill="rgba(71,55,99,0.33)"/>
      <rect id="Rectangle_383" data-name="Rectangle 383" width="1.464" height="7.968" rx="0.732" transform="translate(6.67 89.944) rotate(135)" fill="rgba(71,55,99,0.33)"/>
    </g>
    <g id="Pattern-2" data-name="Pattern" transform="translate(206.83 0) rotate(90)">
      <rect id="Rectangle_303-2" data-name="Rectangle 303" width="1.464" height="7.968" rx="0.732" transform="translate(96.654 85.645) rotate(-45)" fill="rgba(71,55,99,0.33)"/>
      <rect id="Rectangle_304-2" data-name="Rectangle 304" width="1.464" height="7.968" rx="0.732" transform="translate(84.609 73.6) rotate(-45)" fill="rgba(71,55,99,0.33)"/>
      <rect id="Rectangle_305-2" data-name="Rectangle 305" width="1.464" height="7.968" rx="0.732" transform="translate(72.565 61.556) rotate(-45)" fill="rgba(71,55,99,0.33)"/>
      <rect id="Rectangle_306-2" data-name="Rectangle 306" width="1.464" height="7.968" rx="0.732" transform="translate(60.521 49.514) rotate(-45)" fill="rgba(71,55,99,0.33)"/>
      <rect id="Rectangle_307-2" data-name="Rectangle 307" width="1.464" height="7.968" rx="0.732" transform="translate(48.477 37.469) rotate(-45)" fill="rgba(71,55,99,0.33)"/>
      <rect id="Rectangle_308-2" data-name="Rectangle 308" width="1.464" height="7.968" rx="0.732" transform="translate(36.433 25.425) rotate(-45)" fill="rgba(71,55,99,0.33)"/>
      <rect id="Rectangle_309-2" data-name="Rectangle 309" width="1.464" height="7.968" rx="0.732" transform="translate(24.389 13.38) rotate(-45)" fill="rgba(71,55,99,0.33)"/>
      <rect id="Rectangle_310-2" data-name="Rectangle 310" width="1.464" height="7.968" rx="0.732" transform="translate(12.044 1.037) rotate(-45)" fill="rgba(71,55,99,0.33)"/>
      <rect id="Rectangle_311-2" data-name="Rectangle 311" width="1.464" height="7.968" rx="0.732" transform="translate(96.654 73.6) rotate(-45)" fill="rgba(71,55,99,0.33)"/>
      <rect id="Rectangle_312-2" data-name="Rectangle 312" width="1.464" height="7.968" rx="0.732" transform="translate(84.609 61.556) rotate(-45)" fill="rgba(71,55,99,0.33)"/>
      <rect id="Rectangle_313-2" data-name="Rectangle 313" width="1.464" height="7.968" rx="0.732" transform="translate(72.565 49.512) rotate(-45)" fill="rgba(71,55,99,0.33)"/>
      <rect id="Rectangle_314-2" data-name="Rectangle 314" width="1.464" height="7.968" rx="0.732" transform="translate(60.521 37.469) rotate(-45)" fill="rgba(71,55,99,0.33)"/>
      <rect id="Rectangle_315-2" data-name="Rectangle 315" width="1.464" height="7.968" rx="0.732" transform="translate(48.477 25.425) rotate(-45)" fill="rgba(71,55,99,0.33)"/>
      <rect id="Rectangle_316-2" data-name="Rectangle 316" width="1.464" height="7.968" rx="0.732" transform="translate(36.433 13.38) rotate(-45)" fill="rgba(71,55,99,0.33)"/>
      <rect id="Rectangle_317-2" data-name="Rectangle 317" width="1.464" height="7.968" rx="0.732" transform="translate(24.088 1.035) rotate(-45)" fill="rgba(71,55,99,0.33)"/>
      <rect id="Rectangle_318-2" data-name="Rectangle 318" width="1.464" height="7.968" rx="0.732" transform="translate(96.654 61.558) rotate(-45)" fill="rgba(71,55,99,0.33)"/>
      <rect id="Rectangle_319-2" data-name="Rectangle 319" width="1.464" height="7.968" rx="0.732" transform="translate(84.609 49.514) rotate(-45)" fill="rgba(71,55,99,0.33)"/>
      <rect id="Rectangle_320-2" data-name="Rectangle 320" width="1.464" height="7.968" rx="0.732" transform="translate(72.565 37.469) rotate(-45)" fill="rgba(71,55,99,0.33)"/>
      <rect id="Rectangle_321-2" data-name="Rectangle 321" width="1.464" height="7.968" rx="0.732" transform="translate(60.521 25.426) rotate(-45)" fill="rgba(71,55,99,0.33)"/>
      <rect id="Rectangle_322-2" data-name="Rectangle 322" width="1.464" height="7.968" rx="0.732" transform="translate(48.477 13.382) rotate(-45)" fill="rgba(71,55,99,0.33)"/>
      <rect id="Rectangle_323-2" data-name="Rectangle 323" width="1.464" height="7.968" rx="0.732" transform="translate(36.132 1.037) rotate(-45)" fill="rgba(71,55,99,0.33)"/>
      <rect id="Rectangle_324-2" data-name="Rectangle 324" width="1.464" height="7.968" rx="0.732" transform="translate(96.653 49.514) rotate(-45)" fill="rgba(71,55,99,0.33)"/>
      <rect id="Rectangle_325-2" data-name="Rectangle 325" width="1.464" height="7.968" rx="0.732" transform="translate(84.609 37.469) rotate(-45)" fill="rgba(71,55,99,0.33)"/>
      <rect id="Rectangle_326-2" data-name="Rectangle 326" width="1.464" height="7.968" rx="0.732" transform="translate(72.565 25.425) rotate(-45)" fill="rgba(71,55,99,0.33)"/>
      <rect id="Rectangle_327-2" data-name="Rectangle 327" width="1.464" height="7.968" rx="0.732" transform="translate(60.521 13.382) rotate(-45)" fill="rgba(71,55,99,0.33)"/>
      <rect id="Rectangle_328-2" data-name="Rectangle 328" width="1.464" height="7.968" rx="0.732" transform="translate(48.176 1.037) rotate(-45)" fill="rgba(71,55,99,0.33)"/>
      <rect id="Rectangle_329-2" data-name="Rectangle 329" width="1.464" height="7.968" rx="0.732" transform="translate(96.653 37.469) rotate(-45)" fill="rgba(71,55,99,0.33)"/>
      <rect id="Rectangle_330-2" data-name="Rectangle 330" width="1.464" height="7.968" rx="0.732" transform="translate(84.609 25.425) rotate(-45)" fill="rgba(71,55,99,0.33)"/>
      <rect id="Rectangle_331-2" data-name="Rectangle 331" width="1.464" height="7.968" rx="0.732" transform="translate(72.565 13.38) rotate(-45)" fill="rgba(71,55,99,0.33)"/>
      <rect id="Rectangle_332-2" data-name="Rectangle 332" width="1.464" height="7.968" rx="0.732" transform="translate(60.22 1.037) rotate(-45)" fill="rgba(71,55,99,0.33)"/>
      <rect id="Rectangle_333-2" data-name="Rectangle 333" width="1.464" height="7.968" rx="0.732" transform="translate(96.653 25.425) rotate(-45)" fill="rgba(71,55,99,0.33)"/>
      <rect id="Rectangle_334-2" data-name="Rectangle 334" width="1.464" height="7.968" rx="0.732" transform="translate(84.609 13.38) rotate(-45)" fill="rgba(71,55,99,0.33)"/>
      <rect id="Rectangle_335-2" data-name="Rectangle 335" width="1.464" height="7.968" rx="0.732" transform="translate(72.264 1.035) rotate(-45)" fill="rgba(71,55,99,0.33)"/>
      <rect id="Rectangle_336-2" data-name="Rectangle 336" width="1.464" height="7.968" rx="0.732" transform="translate(96.653 1.338) rotate(-45)" fill="rgba(71,55,99,0.33)"/>
      <rect id="Rectangle_337-2" data-name="Rectangle 337" width="1.464" height="7.968" rx="0.732" transform="translate(96.653 13.382) rotate(-45)" fill="rgba(71,55,99,0.33)"/>
      <rect id="Rectangle_338-2" data-name="Rectangle 338" width="1.464" height="7.968" rx="0.732" transform="translate(84.308 1.037) rotate(-45)" fill="rgba(71,55,99,0.33)"/>
      <rect id="Rectangle_339-2" data-name="Rectangle 339" width="1.464" height="7.968" rx="0.732" transform="translate(96.654 97.689) rotate(-45)" fill="rgba(71,55,99,0.33)"/>
      <rect id="Rectangle_340-2" data-name="Rectangle 340" width="1.464" height="7.968" rx="0.732" transform="translate(84.609 85.645) rotate(-45)" fill="rgba(71,55,99,0.33)"/>
      <rect id="Rectangle_341-2" data-name="Rectangle 341" width="1.464" height="7.968" rx="0.732" transform="translate(72.565 73.6) rotate(-45)" fill="rgba(71,55,99,0.33)"/>
      <rect id="Rectangle_342-2" data-name="Rectangle 342" width="1.464" height="7.968" rx="0.732" transform="translate(60.521 61.558) rotate(-45)" fill="rgba(71,55,99,0.33)"/>
      <rect id="Rectangle_343-2" data-name="Rectangle 343" width="1.464" height="7.968" rx="0.732" transform="translate(48.477 49.514) rotate(-45)" fill="rgba(71,55,99,0.33)"/>
      <rect id="Rectangle_344-2" data-name="Rectangle 344" width="1.464" height="7.968" rx="0.732" transform="translate(36.433 37.469) rotate(-45)" fill="rgba(71,55,99,0.33)"/>
      <rect id="Rectangle_345-2" data-name="Rectangle 345" width="1.464" height="7.968" rx="0.732" transform="translate(24.389 25.425) rotate(-45)" fill="rgba(71,55,99,0.33)"/>
      <rect id="Rectangle_346-2" data-name="Rectangle 346" width="1.464" height="7.968" rx="0.732" transform="translate(12.345 13.382) rotate(-45)" fill="rgba(71,55,99,0.33)"/>
      <rect id="Rectangle_347-2" data-name="Rectangle 347" width="1.464" height="7.968" rx="0.732" transform="translate(0.301 1.338) rotate(-45)" fill="rgba(71,55,99,0.33)"/>
      <rect id="Rectangle_348-2" data-name="Rectangle 348" width="1.464" height="7.968" rx="0.732" transform="translate(91.279 102.29) rotate(135)" fill="rgba(71,55,99,0.33)"/>
      <rect id="Rectangle_349-2" data-name="Rectangle 349" width="1.464" height="7.968" rx="0.732" transform="translate(79.234 90.245) rotate(135)" fill="rgba(71,55,99,0.33)"/>
      <rect id="Rectangle_350-2" data-name="Rectangle 350" width="1.464" height="7.968" rx="0.732" transform="translate(67.191 78.201) rotate(135)" fill="rgba(71,55,99,0.33)"/>
      <rect id="Rectangle_351-2" data-name="Rectangle 351" width="1.464" height="7.968" rx="0.732" transform="translate(55.147 66.158) rotate(135)" fill="rgba(71,55,99,0.33)"/>
      <rect id="Rectangle_352-2" data-name="Rectangle 352" width="1.464" height="7.968" rx="0.732" transform="translate(43.102 54.114) rotate(135)" fill="rgba(71,55,99,0.33)"/>
      <rect id="Rectangle_353-2" data-name="Rectangle 353" width="1.464" height="7.968" rx="0.732" transform="translate(31.059 42.07) rotate(135)" fill="rgba(71,55,99,0.33)"/>
      <rect id="Rectangle_354-2" data-name="Rectangle 354" width="1.464" height="7.968" rx="0.732" transform="translate(19.015 30.025) rotate(135)" fill="rgba(71,55,99,0.33)"/>
      <rect id="Rectangle_355-2" data-name="Rectangle 355" width="1.464" height="7.968" rx="0.732" transform="translate(6.67 17.681) rotate(135)" fill="rgba(71,55,99,0.33)"/>
      <rect id="Rectangle_356-2" data-name="Rectangle 356" width="1.464" height="7.968" rx="0.732" transform="translate(79.234 102.29) rotate(135)" fill="rgba(71,55,99,0.33)"/>
      <rect id="Rectangle_357-2" data-name="Rectangle 357" width="1.464" height="7.968" rx="0.732" transform="translate(67.191 90.245) rotate(135)" fill="rgba(71,55,99,0.33)"/>
      <rect id="Rectangle_358-2" data-name="Rectangle 358" width="1.464" height="7.968" rx="0.732" transform="translate(55.147 78.201) rotate(135)" fill="rgba(71,55,99,0.33)"/>
      <rect id="Rectangle_359-2" data-name="Rectangle 359" width="1.464" height="7.968" rx="0.732" transform="translate(43.102 66.158) rotate(135)" fill="rgba(71,55,99,0.33)"/>
      <rect id="Rectangle_360-2" data-name="Rectangle 360" width="1.464" height="7.968" rx="0.732" transform="translate(31.059 54.114) rotate(135)" fill="rgba(71,55,99,0.33)"/>
      <rect id="Rectangle_361-2" data-name="Rectangle 361" width="1.464" height="7.968" rx="0.732" transform="translate(19.015 42.07) rotate(135)" fill="rgba(71,55,99,0.33)"/>
      <rect id="Rectangle_362-2" data-name="Rectangle 362" width="1.464" height="7.968" rx="0.732" transform="translate(6.67 29.724) rotate(135)" fill="rgba(71,55,99,0.33)"/>
      <rect id="Rectangle_363-2" data-name="Rectangle 363" width="1.464" height="7.968" rx="0.732" transform="translate(67.191 102.29) rotate(135)" fill="rgba(71,55,99,0.33)"/>
      <rect id="Rectangle_364-2" data-name="Rectangle 364" width="1.464" height="7.968" rx="0.732" transform="translate(55.147 90.245) rotate(135)" fill="rgba(71,55,99,0.33)"/>
      <rect id="Rectangle_365-2" data-name="Rectangle 365" width="1.464" height="7.968" rx="0.732" transform="translate(43.102 78.201) rotate(135)" fill="rgba(71,55,99,0.33)"/>
      <rect id="Rectangle_366-2" data-name="Rectangle 366" width="1.464" height="7.968" rx="0.732" transform="translate(31.059 66.158) rotate(135)" fill="rgba(71,55,99,0.33)"/>
      <rect id="Rectangle_367-2" data-name="Rectangle 367" width="1.464" height="7.968" rx="0.732" transform="translate(19.014 54.114) rotate(135)" fill="rgba(71,55,99,0.33)"/>
      <rect id="Rectangle_368-2" data-name="Rectangle 368" width="1.464" height="7.968" rx="0.732" transform="translate(6.669 41.769) rotate(135)" fill="rgba(71,55,99,0.33)"/>
      <rect id="Rectangle_369-2" data-name="Rectangle 369" width="1.464" height="7.968" rx="0.732" transform="translate(55.147 102.29) rotate(135)" fill="rgba(71,55,99,0.33)"/>
      <rect id="Rectangle_370-2" data-name="Rectangle 370" width="1.464" height="7.968" rx="0.732" transform="translate(43.102 90.245) rotate(135)" fill="rgba(71,55,99,0.33)"/>
      <rect id="Rectangle_371-2" data-name="Rectangle 371" width="1.464" height="7.968" rx="0.732" transform="translate(31.059 78.201) rotate(135)" fill="rgba(71,55,99,0.33)"/>
      <rect id="Rectangle_372-2" data-name="Rectangle 372" width="1.464" height="7.968" rx="0.732" transform="translate(19.014 66.158) rotate(135)" fill="rgba(71,55,99,0.33)"/>
      <rect id="Rectangle_373-2" data-name="Rectangle 373" width="1.464" height="7.968" rx="0.732" transform="translate(6.669 53.813) rotate(135)" fill="rgba(71,55,99,0.33)"/>
      <rect id="Rectangle_374-2" data-name="Rectangle 374" width="1.464" height="7.968" rx="0.732" transform="translate(43.102 102.29) rotate(135)" fill="rgba(71,55,99,0.33)"/>
      <rect id="Rectangle_375-2" data-name="Rectangle 375" width="1.464" height="7.968" rx="0.732" transform="translate(31.059 90.245) rotate(135)" fill="rgba(71,55,99,0.33)"/>
      <rect id="Rectangle_376-2" data-name="Rectangle 376" width="1.464" height="7.968" rx="0.732" transform="translate(19.015 78.201) rotate(135)" fill="rgba(71,55,99,0.33)"/>
      <rect id="Rectangle_377-2" data-name="Rectangle 377" width="1.464" height="7.968" rx="0.732" transform="translate(6.669 65.857) rotate(135)" fill="rgba(71,55,99,0.33)"/>
      <rect id="Rectangle_378-2" data-name="Rectangle 378" width="1.464" height="7.968" rx="0.732" transform="translate(31.059 102.29) rotate(135)" fill="rgba(71,55,99,0.33)"/>
      <rect id="Rectangle_379-2" data-name="Rectangle 379" width="1.464" height="7.968" rx="0.732" transform="translate(19.015 90.245) rotate(135)" fill="rgba(71,55,99,0.33)"/>
      <rect id="Rectangle_380-2" data-name="Rectangle 380" width="1.464" height="7.968" rx="0.732" transform="translate(6.669 77.9) rotate(135)" fill="rgba(71,55,99,0.33)"/>
      <rect id="Rectangle_381-2" data-name="Rectangle 381" width="1.464" height="7.968" rx="0.732" transform="translate(6.971 102.29) rotate(135)" fill="rgba(71,55,99,0.33)"/>
      <rect id="Rectangle_382-2" data-name="Rectangle 382" width="1.464" height="7.968" rx="0.732" transform="translate(19.015 102.29) rotate(135)" fill="rgba(71,55,99,0.33)"/>
      <rect id="Rectangle_383-2" data-name="Rectangle 383" width="1.464" height="7.968" rx="0.732" transform="translate(6.67 89.944) rotate(135)" fill="rgba(71,55,99,0.33)"/>
    </g>
  </g>
</svg>
